<svg width="72" height="72" viewBox="0 0 72 72" fill="none" xmlns="http://www.w3.org/2000/svg">
<g clip-path="url(#clip0_929_50)">
<circle cx="36" cy="36" r="36" fill="black"/>
<path d="M72 36C72 55.8823 55.8823 72 36 72C16.1177 72 0 55.8823 0 36C0 16.1177 16.1177 0 36 0C55.8823 0 72 16.1177 72 36Z" fill="black"/>
<path d="M32 39.5C32 35 29.6943 33.0905 28.7218 31.8008C28.0899 30.9626 26.2843 28.3231 25.4933 27.1532M25.4933 27.1532L25.8259 30.9995C26.2708 31.01 27.2999 30.8824 27.8567 30.2877C28.4135 29.6931 28.7019 28.7764 28.7766 28.3924L25.4933 27.1532ZM25.4933 27.1532C24.1084 27.9971 19.6264 29.4572 14.5889 27.1809C8.29191 24.3355 4.15513 16.7477 7.61996 10.4753C11.0848 4.20296 18.3229 3.22501 23.2627 7.53069C28.2025 11.8364 28.9938 17.7403 28.6345 20.524C28.347 22.751 27.4004 24.6592 26.963 25.335C25.6297 25.885 22.3208 26.9013 19.7517 26.5658C17.1826 26.2304 15.171 25.1032 14.4863 24.5815" stroke="#F4CC84" stroke-width="2" stroke-linecap="round" stroke-linejoin="round"/>
<path d="M16.5819 10.1687C17.4284 10.2771 19.5012 10.9831 21.0205 12.9403C22.5399 14.8975 23.1313 16.247 23.2371 16.6771" stroke="#F4CC84" stroke-width="2" stroke-linecap="round" stroke-linejoin="round"/>
<path d="M40.1778 39C44.3118 36.2245 42.9739 32.3318 43.1947 30.5893C43.3382 29.457 43.9339 26.0311 44.2051 24.5197M44.2051 24.5197L41.5465 27.7683C41.8851 28.114 42.7836 28.7952 43.6685 28.7543C44.5533 28.7135 45.4734 28.2182 45.8229 27.9756L44.2051 24.5197ZM44.2051 24.5197C42.4861 24.1265 37.8869 21.8641 35.6893 16.2694C32.9422 9.27603 35.4754 0.226849 42.9327 -2.03116C50.3899 -4.28917 56.7705 0.439648 57.3525 7.54108C57.9346 14.6425 54.0725 19.8421 51.6809 21.7382C49.7676 23.255 47.5827 24.0235 46.7293 24.2181C45.2734 23.6352 41.9247 21.9168 40.1778 19.7067C38.4309 17.4965 37.7188 15.0924 37.5812 14.1666" stroke="#F4CC84" stroke-width="2" stroke-linecap="round" stroke-linejoin="round"/>
<path d="M51.5443 3.62695C52.1215 4.35347 53.2007 6.47584 52.8996 9.15313C52.5986 11.8304 52.0356 13.3303 51.7917 13.7456" stroke="#F4CC84" stroke-width="2" stroke-linecap="round" stroke-linejoin="round"/>
<path d="M25.4942 58.3772L20.8003 55.0057C24.798 50.834 27.9094 40.9827 27.9094 40.9827" stroke="#F4CC84" stroke-width="2" stroke-linecap="round" stroke-linejoin="round"/>
<path d="M14.3294 70.1994C21.3046 62.6908 26.9977 60.2796 30.9701 62.6628C34.946 65.0435 38.1488 67.4703 38.1488 67.4703C40.8308 65.5541 44.6241 56.778 45.879 52.5538" stroke="#F4CC84" stroke-width="2" stroke-linecap="round" stroke-linejoin="round"/>
<path d="M43.541 66.3137C43.541 66.3137 45.9969 59.627 46.0533 53.5303" stroke="#F4CC84" stroke-width="2" stroke-linecap="round" stroke-linejoin="round"/>
<path d="M55.2948 55.7067C51.0945 55.3367 47.3542 53.9364 45.8784 52.5539C45.8784 52.5539 48.7423 57.8089 47.5639 64.2576" stroke="#F4CC84" stroke-width="2" stroke-linecap="round" stroke-linejoin="round"/>
<path d="M45.8782 52.5536C48.9427 53.3014 53.7983 53.6021 56.267 53.5767" stroke="#F4CC84" stroke-width="2" stroke-linecap="round" stroke-linejoin="round"/>
<path d="M57.1572 50.1709C57.2837 50.1987 49.264 51.8569 45.8755 52.55" stroke="#F4CC84" stroke-width="2" stroke-linecap="round" stroke-linejoin="round"/>
<path d="M45.8794 52.554C45.8794 52.554 35.2529 45.6746 30.8433 42.8701C30.8433 42.8701 29.4443 41.9348 31.8278 40.5237C34.2721 39.7258 36.1339 38.6629 37.358 37.3101C37.358 37.3101 50.9625 46.4873 57.1611 50.1749" stroke="#F4CC84" stroke-width="2" stroke-linecap="round" stroke-linejoin="round"/>
<path d="M73.5746 40.0227C64.7018 42.1412 49.3524 49.0202 47.2079 50.166C47.2079 50.166 31.5535 40.0237 30.7791 40.0227C30.0082 40.0192 28.7443 39.7567 27.913 40.9861" stroke="#F4CC84" stroke-width="2" stroke-linecap="round" stroke-linejoin="round"/>
</g>
<defs>
<clipPath id="clip0_929_50">
<rect width="72" height="72" rx="36" fill="white"/>
</clipPath>
</defs>
</svg>
